<?xml version="1.0" encoding="UTF-8"?>
<svg id="_レイヤー_1" xmlns="http://www.w3.org/2000/svg" viewBox="0 0 30.44 32">
    <defs>
        <style>
            .cls-1{
                fill:#000;stroke-width:0px;
            }
            @media (prefers-color-scheme: dark) {
                .cls-1 {
                    fill: #FFF;
                }
            }
        </style>
    </defs>
<path id="_中マド_1" class="cls-1" d="M28.9,32H1.54C.69,32,0,31.31,0,30.46V10.25c0-.7.36-1.35.96-1.72L14.15.31c.66-.41,1.49-.41,2.15,0l13.19,8.22c.6.37.96,1.02.96,1.72v20.21c0,.85-.69,1.54-1.54,1.54ZM8.79,20.64v3c0,1.07.59,1.65,1.65,1.65h10.45v-2.13h-9.31c-.25.02-.47-.15-.49-.4,0-.03,0-.07,0-.1v-2.02h-2.3ZM9.02,12.5v2.13h8.85c.25-.03.48.16.51.41,0,.03,0,.06,0,.1v2.02h2.28v-3c0-1.07-.58-1.65-1.64-1.65h-10Z"/>
</svg>